<svg xmlns="http://www.w3.org/2000/svg" width="18" height="20.571" viewBox="0 0 18 20.571">
  <path id="IconMetricasMes" d="M0,18.643a1.929,1.929,0,0,0,1.929,1.929H16.071A1.929,1.929,0,0,0,18,18.643V7.714H0Zm12.857-7.875a.484.484,0,0,1,.482-.482h1.607a.484.484,0,0,1,.482.482v1.607a.484.484,0,0,1-.482.482H13.339a.484.484,0,0,1-.482-.482Zm0,5.143a.484.484,0,0,1,.482-.482h1.607a.484.484,0,0,1,.482.482v1.607a.484.484,0,0,1-.482.482H13.339a.484.484,0,0,1-.482-.482ZM7.714,10.768a.484.484,0,0,1,.482-.482H9.8a.484.484,0,0,1,.482.482v1.607a.484.484,0,0,1-.482.482H8.2a.484.484,0,0,1-.482-.482Zm0,5.143a.484.484,0,0,1,.482-.482H9.8a.484.484,0,0,1,.482.482v1.607A.484.484,0,0,1,9.8,18H8.2a.484.484,0,0,1-.482-.482ZM2.571,10.768a.484.484,0,0,1,.482-.482H4.661a.484.484,0,0,1,.482.482v1.607a.484.484,0,0,1-.482.482H3.054a.484.484,0,0,1-.482-.482Zm0,5.143a.484.484,0,0,1,.482-.482H4.661a.484.484,0,0,1,.482.482v1.607A.484.484,0,0,1,4.661,18H3.054a.484.484,0,0,1-.482-.482Zm13.5-13.339H14.143V.643A.645.645,0,0,0,13.5,0H12.214a.645.645,0,0,0-.643.643V2.571H6.429V.643A.645.645,0,0,0,5.786,0H4.5a.645.645,0,0,0-.643.643V2.571H1.929A1.929,1.929,0,0,0,0,4.5V6.429H18V4.5A1.929,1.929,0,0,0,16.071,2.571Z" fill="#e6e6e6"/>
</svg>
