<svg xmlns="http://www.w3.org/2000/svg" width="71.782" height="71.782" viewBox="0 0 71.782 71.782">
  <path id="IconAlent" d="M39.266,3.375A35.891,35.891,0,1,0,67.213,61.791a35.5,35.5,0,0,0,7.944-22.525A35.886,35.886,0,0,0,39.266,3.375Zm2.968,18.912L41.7,42.148A2.469,2.469,0,0,1,39.266,44.7h0a2.469,2.469,0,0,1-2.433-2.554L36.3,22.287a2.972,2.972,0,0,1,2.968-3.037h0A2.972,2.972,0,0,1,42.234,22.287ZM39.266,56.176A3.177,3.177,0,1,1,42.562,53,3.206,3.206,0,0,1,39.266,56.176Z" transform="translate(-3.375 -3.375)" fill="#ffa807"/>
</svg>
