<svg xmlns="http://www.w3.org/2000/svg" width="45" height="36" viewBox="0 0 45 36">
  <path id="IconVistoria" d="M41.124,18.406l-1.054-2.634L38.2,11.1a10.449,10.449,0,0,0-9.749-6.6H16.547A10.45,10.45,0,0,0,6.8,11.1L4.929,15.772,3.876,18.406A5.987,5.987,0,0,0,0,24v4.5a5.951,5.951,0,0,0,1.5,3.931V37.5a3,3,0,0,0,3,3h3a3,3,0,0,0,3-3v-3h24v3a3,3,0,0,0,3,3h3a3,3,0,0,0,3-3V32.431A5.947,5.947,0,0,0,45,28.5V24A5.987,5.987,0,0,0,41.124,18.406ZM12.368,13.328A4.5,4.5,0,0,1,16.547,10.5H28.453a4.5,4.5,0,0,1,4.178,2.828L34.5,18h-24l1.868-4.672ZM7.5,28.481a2.83,2.83,0,0,1-3-2.991,2.83,2.83,0,0,1,3-2.991c1.8,0,4.5,2.692,4.5,4.486S9.3,28.481,7.5,28.481Zm30,0c-1.8,0-4.5.3-4.5-1.5S35.7,22.5,37.5,22.5a2.83,2.83,0,0,1,3,2.991,2.83,2.83,0,0,1-3,2.991Z" transform="translate(0 -4.5)" fill="#7584a6"/>
</svg>
