<svg xmlns="http://www.w3.org/2000/svg" width="18" height="20.571" viewBox="0 0 18 20.571">
  <path id="IconMetricasDia" d="M0,18.643a1.929,1.929,0,0,0,1.929,1.929H16.071A1.929,1.929,0,0,0,18,18.643V7.714H0Zm2.571-7.714a.645.645,0,0,1,.643-.643H7.071a.645.645,0,0,1,.643.643v3.857a.645.645,0,0,1-.643.643H3.214a.645.645,0,0,1-.643-.643Zm13.5-8.357H14.143V.643A.645.645,0,0,0,13.5,0H12.214a.645.645,0,0,0-.643.643V2.571H6.429V.643A.645.645,0,0,0,5.786,0H4.5a.645.645,0,0,0-.643.643V2.571H1.929A1.929,1.929,0,0,0,0,4.5V6.429H18V4.5A1.929,1.929,0,0,0,16.071,2.571Z" fill="#e6e6e6"/>
</svg>
