<svg id="Camada_1" data-name="Camada 1" xmlns="http://www.w3.org/2000/svg" xmlns:xlink="http://www.w3.org/1999/xlink" viewBox="0 0 957.55 479.61"><defs><style>.cls-1{fill:#00897b;}.cls-2{fill:#7cb342;}.cls-3,.cls-6{fill:#14aa4b;}.cls-4{fill:#338ae8;}.cls-5{fill:#dd4545;}.cls-6{font-size:192.33px;stroke:#006837;stroke-miterlimit:10;stroke-width:0.5px;font-family:AntipastoPro-DemiBold, Antipasto Pro;font-weight:300;}.cls-7{letter-spacing:0em;}.cls-8{letter-spacing:0em;}.cls-9{fill:url(#Gradiente_sem_nome_69);}</style><radialGradient id="Gradiente_sem_nome_69" cx="483.57" cy="383.75" r="582.52" gradientTransform="translate(-4.76 81) rotate(-0.89) scale(1 0.81)" gradientUnits="userSpaceOnUse"><stop offset="0" stop-color="#038b7a"/><stop offset="0.09" stop-color="#7cb342"/><stop offset="0.63" stop-color="#7ac943"/><stop offset="0.66" stop-color="#6ac14a"/><stop offset="0.73" stop-color="#44ad5c"/><stop offset="0.8" stop-color="#269d69"/><stop offset="0.87" stop-color="#119273"/><stop offset="0.94" stop-color="#048b79"/><stop offset="1" stop-color="#00897b"/></radialGradient></defs><title>LogoMetade</title><g id="Letras"><path class="cls-1" d="M761.09,474.55h-44.4V350.9H676.56V315.84H801.11V350.9h-40Z" transform="translate(-4.8 -4.44)"/><path class="cls-2" d="M623.67,416.79v57.76h-44.4V315.84h53.85q67,0,67,46.89,0,27.58-27.88,42.67l47.89,69.15H669.76l-34.85-57.76Zm0-32.24H632q23.26,0,23.27-19.86,0-16.4-22.82-16.39h-8.77Z" transform="translate(-4.8 -4.44)"/><path class="cls-3" d="M548.92,474.55l-8.1-29.75H487.43l-8.32,29.75H430.33L484,315.19h59.24l54.29,159.36Zm-17.31-64.92-7.08-26.05q-2.47-8.68-6-22.47t-4.66-19.76q-1,5.53-4,18.23t-13.21,50.05Z" transform="translate(-4.8 -4.44)"/><path class="cls-4" d="M328.88,474.55,295.27,360.24h-1q2.36,29.2,2.36,45.37v68.94H257.28V315.84H316.4l34.29,112.68h.9L385.2,315.84h59.23V474.55h-40.8V405q0-5.43.17-12t1.52-32.46h-1l-33.16,114.1Z" transform="translate(-4.8 -4.44)"/><path class="cls-5" d="M267.35,426.35a45.63,45.63,0,0,1-7.76,26.21q-7.75,11.46-22.37,17.81t-34.28,6.35a143,143,0,0,1-27.54-2.23,104.6,104.6,0,0,1-23.16-7.76V428.52a134.73,134.73,0,0,0,26.42,9.82,101.27,101.27,0,0,0,25.18,3.53q9.89,0,14.5-3.31A10.09,10.09,0,0,0,223,430a9.15,9.15,0,0,0-1.86-5.7,21.46,21.46,0,0,0-6-4.94q-4.09-2.49-21.86-10.2-16.08-7.06-24.11-13.68a42.24,42.24,0,0,1-11.92-15.2q-3.87-8.58-3.87-20.3,0-21.93,16.52-34.2t45.41-12.26q25.51,0,52.05,11.4l-13.6,33.11Q230.7,347.86,214,347.86q-8.65,0-12.59,2.93a8.8,8.8,0,0,0-3.93,7.28q0,4.67,5,8.35t27.15,13.47q21.24,9.23,29.5,19.81T267.35,426.35Z" transform="translate(-4.8 -4.44)"/><text id="Tools" class="cls-6" transform="translate(303.49 273.82) rotate(-0.05) scale(0.86 1)">m<tspan class="cls-7" x="140.11" y="0">et</tspan><tspan class="cls-8" x="296" y="0">a</tspan></text></g><path class="cls-9" d="M962.34,483.21C962.34,218.79,748,4.44,483.57,4.44S4.8,218.79,4.8,483.21v.68H121.45c.09-200.38,162.56-362.8,363-362.8s362.88,162.42,363,362.8h0v.16" transform="translate(-4.8 -4.44)"/></svg>