<svg xmlns="http://www.w3.org/2000/svg" xmlns:xlink="http://www.w3.org/1999/xlink" width="53.5" height="47.5" viewBox="0 0 53.5 47.5">
  <defs>
    <filter id="Elipse_25" x="10.5" y="0" width="43" height="43" filterUnits="userSpaceOnUse">
      <feOffset input="SourceAlpha"/>
      <feGaussianBlur stdDeviation="3" result="blur"/>
      <feFlood flood-color="#06fe1f" flood-opacity="0.98"/>
      <feComposite operator="in" in2="blur"/>
      <feComposite in="SourceGraphic"/>
    </filter>
  </defs>
  <g id="Grupo_1114" data-name="Grupo 1114" transform="translate(0.5 9)">
    <path id="Icon_awesome-bell" data-name="Icon awesome-bell" d="M15.75,36a4.5,4.5,0,0,0,4.5-4.5h-9A4.5,4.5,0,0,0,15.75,36ZM30.895,25.474c-1.358-1.46-3.9-3.656-3.9-10.849a11.1,11.1,0,0,0-9-10.91V2.25a2.249,2.249,0,1,0-4.5,0V3.715a11.1,11.1,0,0,0-9,10.91c0,7.193-2.542,9.389-3.9,10.849A2.2,2.2,0,0,0,0,27a2.252,2.252,0,0,0,2.257,2.25H29.243A2.252,2.252,0,0,0,31.5,27a2.2,2.2,0,0,0-.605-1.526Z" transform="translate(0 2)" fill="#232835" stroke="#ecf0fa" stroke-width="1"/>
    <g transform="matrix(1, 0, 0, 1, -0.5, -9)" filter="url(#Elipse_25)">
      <circle id="Elipse_25-2" data-name="Elipse 25" cx="12.5" cy="12.5" r="12.5" transform="translate(19.5 9)" fill="#ecf0fa"/>
    </g>
    <text id="_3" data-name="3" transform="translate(27 18)" fill="#22c03c" font-size="16" font-family="SegoeUI-Bold, Segoe UI" font-weight="700"><tspan x="0" y="0">3</tspan></text>
  </g>
</svg>
